<svg width="580" height="180" viewBox="0 0 580 180" fill="none" xmlns="http://www.w3.org/2000/svg">
<path d="M548.384 94.0801C541.387 94.0801 535.243 92.5655 529.952 89.5361C524.661 86.5068 520.523 82.3041 517.536 76.9281C514.592 71.5521 513.12 65.3655 513.12 58.3681C513.12 50.8161 514.571 44.2668 517.472 38.7201C520.373 33.1308 524.405 28.8001 529.568 25.7281C534.731 22.6561 540.704 21.1201 547.488 21.1201C554.656 21.1201 560.736 22.8055 565.728 26.1761C570.763 29.5041 574.496 34.2188 576.928 40.3201C579.36 46.4214 580.277 53.6108 579.68 61.8881H564.384V56.2561C564.341 48.7468 563.019 43.2641 560.416 39.8081C557.813 36.3521 553.717 34.6241 548.128 34.6241C541.813 34.6241 537.12 36.5868 534.048 40.5121C530.976 44.3948 529.44 50.0908 529.44 57.6001C529.44 64.5975 530.976 70.0161 534.048 73.8561C537.12 77.6961 541.6 79.6161 547.488 79.6161C551.285 79.6161 554.549 78.7841 557.28 77.1201C560.053 75.4135 562.187 72.9601 563.68 69.7601L578.912 74.3681C576.267 80.5975 572.171 85.4401 566.624 88.8961C561.12 92.3521 555.04 94.0801 548.384 94.0801ZM524.576 61.8881V50.2401H572.128V61.8881H524.576Z" fill="#0F172A"/>
<path d="M505.597 92.1599C501.032 93.0132 496.552 93.3758 492.157 93.2478C487.805 93.1625 483.901 92.3732 480.445 90.8799C476.989 89.3438 474.365 86.9332 472.573 83.6479C470.994 80.6612 470.162 77.6105 470.077 74.4958C469.992 71.3812 469.949 67.8612 469.949 63.9359V3.83984H485.309V63.0398C485.309 65.8132 485.33 68.2452 485.373 70.3358C485.458 72.4265 485.906 74.1332 486.717 75.4558C488.253 78.0158 490.706 79.4452 494.077 79.7439C497.448 80.0425 501.288 79.8718 505.597 79.2318V92.1599ZM457.405 35.1358V23.0398H505.597V35.1358H457.405Z" fill="#0F172A"/>
<path d="M410.88 94.144C405.76 94.144 401.536 93.2907 398.208 91.584C394.88 89.8774 392.235 87.7014 390.272 85.056C388.309 82.4107 386.859 79.5947 385.92 76.608C384.981 73.6214 384.363 70.8054 384.064 68.16C383.808 65.472 383.68 63.296 383.68 61.632V23.04H399.296V56.32C399.296 58.4534 399.445 60.864 399.744 63.552C400.043 66.1974 400.725 68.7574 401.792 71.232C402.901 73.664 404.523 75.6694 406.656 77.248C408.832 78.8267 411.755 79.616 415.424 79.616C417.387 79.616 419.328 79.296 421.248 78.656C423.168 78.016 424.896 76.928 426.432 75.392C428.011 73.8134 429.269 71.6587 430.208 68.928C431.147 66.1974 431.616 62.7414 431.616 58.56L440.768 62.464C440.768 68.352 439.616 73.6854 437.312 78.464C435.051 83.2427 431.701 87.0614 427.264 89.92C422.827 92.736 417.365 94.144 410.88 94.144ZM433.472 92.16V70.72H431.616V23.04H447.104V92.16H433.472Z" fill="#0F172A"/>
<path d="M221.335 92.16V0H259.415C260.311 0 261.463 0.0426661 262.871 0.127998C264.279 0.170667 265.58 0.298668 266.775 0.512001C272.108 1.32266 276.503 3.09333 279.959 5.824C283.458 8.55466 286.039 12.0107 287.703 16.192C289.41 20.3307 290.263 24.9387 290.263 30.016C290.263 37.5253 288.364 43.9893 284.567 49.408C280.77 54.784 274.946 58.112 267.095 59.392L260.503 59.968H236.759V92.16H221.335ZM274.263 92.16L256.087 54.656L271.767 51.2L291.735 92.16H274.263ZM236.759 45.568H258.775C259.628 45.568 260.588 45.5253 261.655 45.44C262.722 45.3547 263.703 45.184 264.599 44.928C267.159 44.288 269.164 43.1573 270.615 41.536C272.108 39.9147 273.154 38.08 273.751 36.032C274.391 33.984 274.711 31.9787 274.711 30.016C274.711 28.0533 274.391 26.048 273.751 24C273.154 21.9093 272.108 20.0533 270.615 18.432C269.164 16.8107 267.159 15.68 264.599 15.04C263.703 14.784 262.722 14.6347 261.655 14.592C260.588 14.5067 259.628 14.464 258.775 14.464H236.759V45.568Z" fill="#0F172A"/>
<path d="M158.798 122.88L172.11 86.336L172.366 97.088L142.222 23.04H158.286L179.662 77.824H175.566L196.366 23.04H211.79L173.262 122.88H158.798Z" fill="#0F172A"/>
<path d="M27.392 94.08C20.352 94.08 14.4853 92.2453 9.792 88.576C5.14133 84.9067 1.87733 79.9573 0 73.728L15.232 70.08C15.7013 72.6827 17.0667 74.9227 19.328 76.8C21.5893 78.6773 24.0853 79.616 26.816 79.616C28.608 79.616 30.5067 79.1467 32.512 78.208C34.5173 77.2267 36.0107 75.6693 36.992 73.536C37.5893 72.1707 37.9307 70.5493 38.016 68.672C38.144 66.752 38.208 64.5333 38.208 62.016V0H53.824V62.016C53.824 64.8747 53.8027 67.392 53.76 69.568C53.76 71.7013 53.5467 73.728 53.12 75.648C52.736 77.5253 51.9467 79.4667 50.752 81.472C48.2347 85.824 44.9493 89.024 40.896 91.072C36.8427 93.0773 32.3413 94.08 27.392 94.08Z" fill="#0F172A"/>
<path d="M103.468 20.1602C121.94 20.1602 136.937 34.9001 136.937 53.1074C136.936 62.2496 131.701 72.4785 125 80.3828C121.639 84.3468 117.88 87.7623 114.167 90.1924C110.469 92.6124 106.744 94.1035 103.468 94.1035C100.192 94.1033 96.4672 92.6123 92.7695 90.1924C89.0565 87.7623 85.2974 84.3469 81.9365 80.3828C75.2351 72.4785 70.0003 62.2497 70 53.1074C70 34.9003 84.9954 20.1604 103.468 20.1602ZM103.029 38.9561C94.6115 38.9562 87.7871 45.7504 87.7871 54.1309C87.7871 62.5114 94.6115 69.3056 103.029 69.3057C111.447 69.3057 118.271 62.5114 118.271 54.1309C118.271 45.7503 111.447 38.9561 103.029 38.9561Z" fill="#2BB0A6"/>
<path d="M336.468 20.1602C354.94 20.1602 369.937 34.9001 369.937 53.1074C369.936 62.2496 364.701 72.4785 358 80.3828C354.639 84.3468 350.88 87.7623 347.167 90.1924C343.469 92.6124 339.744 94.1035 336.468 94.1035C333.192 94.1033 329.467 92.6123 325.77 90.1924C322.056 87.7623 318.297 84.3469 314.937 80.3828C308.235 72.4785 303 62.2497 303 53.1074C303 34.9003 317.995 20.1604 336.468 20.1602ZM336.029 38.9561C327.612 38.9562 320.787 45.7504 320.787 54.1309C320.787 62.5114 327.611 69.3056 336.029 69.3057C344.447 69.3057 351.271 62.5114 351.271 54.1309C351.271 45.7503 344.447 38.9561 336.029 38.9561Z" fill="#2BB0A6"/>
<path d="M228.83 171.771C231.036 171.65 232.922 173.34 233.043 175.546C233.164 177.752 231.474 179.638 229.269 179.76C226.371 179.919 223.447 180 220.5 180C218.29 180 216.092 179.954 213.909 179.864L211.731 179.76C209.526 179.638 207.836 177.752 207.957 175.546C208.078 173.34 209.964 171.65 212.17 171.771C214.922 171.923 217.7 172 220.5 172C223.301 172 226.079 171.923 228.83 171.771ZM174.47 168.929C175.09 166.809 177.311 165.592 179.431 166.212C184.34 167.647 189.401 168.833 194.591 169.75L195.631 169.93C197.809 170.298 199.276 172.363 198.907 174.541C198.55 176.651 196.602 178.093 194.501 177.847L194.297 177.817C188.804 176.888 183.438 175.673 178.227 174.19L177.187 173.891C175.066 173.271 173.85 171.049 174.47 168.929ZM261.569 166.212C263.689 165.592 265.91 166.809 266.53 168.929C267.15 171.049 265.934 173.271 263.814 173.891C258.276 175.51 252.562 176.826 246.703 177.817C244.525 178.186 242.461 176.719 242.093 174.541C241.724 172.363 243.191 170.298 245.369 169.93C250.923 168.99 256.333 167.743 261.569 166.212ZM143.572 154.455C144.669 152.617 147.007 151.977 148.877 152.968L149.057 153.069C153.43 155.678 158.037 158.054 162.849 160.175L163.814 160.596C165.842 161.47 166.777 163.824 165.902 165.852C165.055 167.818 162.82 168.757 160.837 168.018L160.646 167.942C155.512 165.729 150.584 163.237 145.894 160.492L144.959 159.939C143.062 158.808 142.441 156.352 143.572 154.455ZM291.943 153.069C293.841 151.938 296.296 152.558 297.428 154.455C298.559 156.352 297.938 158.808 296.041 159.939C291.071 162.903 285.83 165.581 280.355 167.942C278.326 168.817 275.972 167.881 275.098 165.852C274.223 163.824 275.158 161.47 277.187 160.596C282.348 158.37 287.279 155.851 291.943 153.069ZM117.864 132.063C119.451 130.628 121.875 130.701 123.372 132.196L123.515 132.346C126.91 136.098 130.642 139.652 134.68 142.976L135.491 143.639C137.21 145.027 137.478 147.545 136.09 149.264C134.745 150.928 132.339 151.232 130.628 149.987L130.465 149.862C126.094 146.332 122.032 142.542 118.319 138.52L117.582 137.713C116.1 136.075 116.226 133.546 117.864 132.063ZM317.485 132.346C318.967 130.707 321.498 130.581 323.136 132.063C324.774 133.546 324.9 136.075 323.418 137.713C319.507 142.036 315.197 146.097 310.535 149.862C308.817 151.25 306.298 150.982 304.91 149.264C303.522 147.545 303.79 145.027 305.509 143.639C309.859 140.125 313.864 136.349 317.485 132.346ZM104.196 110.43C106.106 109.465 108.424 110.177 109.473 112.015L109.57 112.196C110.64 114.312 111.802 116.392 113.054 118.433L113.596 119.306C114.772 121.175 114.211 123.644 112.342 124.821C110.472 125.998 108.002 125.436 106.825 123.566C105.434 121.355 104.136 119.097 102.938 116.794L102.43 115.804C101.434 113.832 102.225 111.426 104.196 110.43ZM331.43 112.196C332.426 110.225 334.832 109.434 336.804 110.43C338.775 111.426 339.566 113.832 338.57 115.804C337.233 118.45 335.765 121.039 334.175 123.566C332.998 125.436 330.528 125.998 328.658 124.821C326.789 123.644 326.228 121.175 327.404 119.306C328.864 116.986 330.208 114.614 331.43 112.196Z" fill="#2BB0A6"/>
</svg>
